<?xml version="1.0" encoding="utf-8"?>
<svg width="128" height="128" viewBox="0 0 128 128" fill="none" xmlns="http://www.w3.org/2000/svg">
  <defs>
    <linearGradient gradientUnits="userSpaceOnUse" x1="70.671" y1="76.975" x2="70.671" y2="123.842" id="gradient-1" gradientTransform="matrix(0.994982, 0, 0, 1, 0.256333, 0)">
      <stop offset="0" style="stop-color: rgb(50.588% 59.216% 22.353%)"/>
      <stop offset="1" style="stop-color: rgb(26.733% 35.708% 0%)"/>
    </linearGradient>
    <radialGradient gradientUnits="userSpaceOnUse" cx="64" cy="64" r="60.389" id="gradient-0" spreadMethod="repeat">
      <stop offset="0" style="stop-color: #bada55"/>
      <stop offset="1" style="stop-color: #758d29"/>
    </radialGradient>
  </defs>
  <path fill-rule="evenodd" clip-rule="evenodd" d="M63.9998 5.10303C30.6528 5.10303 3.61182 32.138 3.61182 65.491C3.61182 92.173 20.9148 114.808 44.9088 122.794C47.9258 123.354 49.0338 121.484 49.0338 119.889C49.0338 118.449 48.9778 113.692 48.9518 108.646C32.1518 112.299 28.6068 101.521 28.6068 101.521C25.8598 94.541 21.9018 92.685 21.9018 92.685C16.4218 88.937 22.3148 89.015 22.3148 89.015C28.3778 89.44 31.5718 95.238 31.5718 95.238C36.9578 104.468 45.6988 101.8 49.1448 100.258C49.6868 96.355 51.2518 93.69 52.9788 92.182C39.5658 90.657 25.4648 85.478 25.4648 62.339C25.4648 55.746 27.8248 50.359 31.6878 46.129C31.0598 44.609 28.9928 38.467 32.2718 30.149C32.2718 30.149 37.3418 28.526 48.8818 36.339C53.6998 35 58.8668 34.327 63.9998 34.304C69.1298 34.327 74.2998 34.998 79.1268 36.337C90.6528 28.524 95.7168 30.147 95.7168 30.147C99.0038 38.464 96.9368 44.607 96.3098 46.127C100.182 50.357 102.525 55.744 102.525 62.337C102.525 85.531 88.3978 90.637 74.9508 92.133C77.1178 94.007 79.0478 97.683 79.0478 103.316C79.0478 111.396 78.9778 117.899 78.9778 119.888C78.9778 121.495 80.0658 123.378 83.1258 122.785C107.106 114.791 124.389 92.163 124.389 65.491C124.388 32.14 97.3498 5.10403 63.9998 5.10403V5.10303Z" style="stroke-linejoin: round; stroke: url(&quot;#gradient-0&quot;); paint-order: fill;" fill="#181616"/>
  <path d="M26.4836 91.8059C26.3506 92.1059 25.8786 92.1959 25.4486 91.9909C25.0086 91.7949 24.7636 91.3859 24.9056 91.0849C25.0356 90.7749 25.5086 90.6899 25.9456 90.8969C26.3856 91.0939 26.6356 91.5069 26.4826 91.8069L26.4836 91.8059ZM28.9296 94.5349C28.6426 94.8019 28.0796 94.6779 27.6976 94.2549C27.3016 93.8349 27.2276 93.2719 27.5206 93.0009C27.8186 92.7349 28.3646 92.8609 28.7606 93.2809C29.1546 93.7069 29.2326 94.2649 28.9306 94.5359L28.9296 94.5349ZM31.3116 98.0119C30.9416 98.2699 30.3356 98.0289 29.9616 97.4919C29.5916 96.9539 29.5916 96.3089 29.9716 96.0519C30.3446 95.7939 30.9416 96.0269 31.3216 96.5589C31.6896 97.1039 31.6896 97.7489 31.3116 98.0109V98.0119ZM34.5726 101.373C34.2426 101.738 33.5366 101.64 33.0206 101.143C32.4936 100.656 32.3466 99.9629 32.6776 99.5989C33.0136 99.2329 33.7226 99.3349 34.2416 99.8289C34.7686 100.315 34.9276 101.009 34.5746 101.372L34.5726 101.373ZM39.0726 103.324C38.9256 103.797 38.2476 104.012 37.5626 103.81C36.8796 103.603 36.4326 103.05 36.5726 102.572C36.7126 102.095 37.3956 101.872 38.0846 102.087C38.7676 102.293 39.2146 102.843 39.0726 103.324ZM44.0156 103.685C44.0326 104.183 43.4526 104.595 42.7356 104.605C42.0126 104.622 41.4276 104.218 41.4206 103.728C41.4206 103.225 41.9886 102.818 42.7106 102.804C43.4276 102.791 44.0166 103.191 44.0166 103.684L44.0156 103.685ZM48.6136 102.903C48.6996 103.388 48.2006 103.887 47.4876 104.02C46.7876 104.15 46.1376 103.848 46.0476 103.367C45.9616 102.869 46.4696 102.37 47.1696 102.241C47.8836 102.118 48.5236 102.411 48.6136 102.904V102.903Z" fill="#181616"/>
  <path fill="rgb(255,0,0)" d="M 71.891 77.06 C 72.201 77.024 72.515 76.999 72.833 76.987 C 73.152 76.974 73.473 76.973 73.797 76.982 C 74.122 76.992 74.447 77.012 74.772 77.042 C 75.097 77.072 75.421 77.112 75.745 77.161 C 76.068 77.211 76.389 77.269 76.706 77.335 C 77.023 77.402 77.336 77.477 77.643 77.559 C 77.95 77.642 78.251 77.732 78.545 77.828 C 78.837 77.925 79.123 78.029 79.398 78.138 C 79.661 78.243 79.921 78.356 80.178 78.479 C 80.435 78.601 80.69 78.732 80.939 78.87 C 81.189 79.009 81.436 79.155 81.678 79.309 C 81.92 79.462 82.157 79.623 82.39 79.789 C 82.622 79.956 82.85 80.129 83.072 80.308 C 83.293 80.487 83.508 80.671 83.718 80.86 C 83.927 81.049 84.131 81.243 84.327 81.441 C 84.523 81.638 84.712 81.84 84.895 82.045 C 85.076 82.25 85.252 82.465 85.424 82.688 C 85.595 82.91 85.761 83.141 85.922 83.378 C 86.083 83.615 86.238 83.859 86.387 84.107 C 86.536 84.355 86.679 84.608 86.816 84.863 C 86.952 85.119 87.081 85.378 87.205 85.638 C 87.327 85.899 87.444 86.161 87.552 86.422 C 87.661 86.684 87.762 86.945 87.856 87.204 C 87.949 87.463 88.035 87.721 88.112 87.974 C 88.186 88.215 88.256 88.445 88.321 88.669 C 88.386 88.892 88.447 89.109 88.501 89.324 C 88.556 89.539 88.605 89.752 88.647 89.967 C 88.688 90.181 88.724 90.398 88.752 90.622 C 88.779 90.846 88.799 91.076 88.811 91.317 C 88.822 91.558 88.824 91.81 88.817 92.078 C 88.81 92.345 88.793 92.628 88.765 92.931 C 88.737 93.234 88.698 93.556 88.649 93.902 C 88.563 94.485 88.428 95.175 88.251 95.945 C 88.073 96.714 87.855 97.563 87.605 98.466 C 87.354 99.368 87.072 100.324 86.766 101.306 C 86.462 102.287 86.133 103.295 85.793 104.302 C 85.452 105.309 85.097 106.316 84.739 107.296 C 84.382 108.276 84.021 109.228 83.666 110.126 C 83.309 111.024 82.96 111.868 82.626 112.631 C 82.292 113.394 81.972 114.077 81.678 114.652 C 81.484 115.03 81.293 115.385 81.105 115.72 C 80.917 116.055 80.73 116.37 80.544 116.667 C 80.358 116.964 80.174 117.244 79.988 117.509 C 79.803 117.774 79.617 118.024 79.429 118.263 C 79.24 118.501 79.05 118.728 78.857 118.945 C 78.663 119.161 78.466 119.369 78.264 119.57 C 78.062 119.77 77.855 119.964 77.642 120.154 C 77.43 120.344 77.211 120.53 76.985 120.715 C 76.776 120.885 76.563 121.047 76.345 121.201 C 76.126 121.356 75.902 121.502 75.675 121.642 C 75.448 121.781 75.216 121.912 74.982 122.037 C 74.749 122.161 74.512 122.278 74.273 122.389 C 74.033 122.499 73.792 122.603 73.55 122.7 C 73.307 122.798 73.063 122.888 72.819 122.973 C 72.575 123.057 72.33 123.136 72.086 123.208 C 71.841 123.281 71.598 123.347 71.355 123.409 C 71.117 123.469 70.876 123.522 70.632 123.57 C 70.389 123.617 70.143 123.658 69.896 123.693 C 69.648 123.727 69.4 123.756 69.151 123.778 C 68.901 123.801 68.65 123.817 68.401 123.828 C 68.15 123.838 67.9 123.843 67.65 123.842 C 67.402 123.84 67.153 123.833 66.907 123.821 C 66.66 123.808 66.416 123.79 66.174 123.766 C 65.931 123.743 65.691 123.713 65.456 123.679 C 65.223 123.644 64.989 123.604 64.756 123.557 C 64.522 123.511 64.289 123.458 64.057 123.399 C 63.824 123.34 63.592 123.276 63.361 123.207 C 63.13 123.137 62.901 123.062 62.675 122.982 C 62.447 122.901 62.222 122.816 62 122.726 C 61.777 122.635 61.558 122.54 61.342 122.441 C 61.126 122.341 60.913 122.238 60.705 122.13 C 60.497 122.022 60.293 121.909 60.094 121.793 C 59.897 121.678 59.702 121.558 59.511 121.434 C 59.318 121.31 59.129 121.182 58.943 121.049 C 58.756 120.916 58.573 120.779 58.392 120.637 C 58.211 120.495 58.034 120.348 57.86 120.197 C 57.685 120.046 57.514 119.89 57.346 119.729 C 57.178 119.568 57.014 119.403 56.854 119.233 C 56.694 119.063 56.537 118.888 56.384 118.709 C 56.231 118.529 56.082 118.344 55.938 118.155 C 55.781 117.951 55.628 117.742 55.476 117.527 C 55.325 117.312 55.175 117.092 55.03 116.866 C 54.885 116.64 54.743 116.408 54.605 116.172 C 54.467 115.935 54.334 115.692 54.206 115.445 C 54.078 115.197 53.956 114.945 53.839 114.687 C 53.723 114.429 53.613 114.165 53.511 113.897 C 53.407 113.628 53.312 113.355 53.225 113.076 C 53.138 112.798 53.058 112.514 52.988 112.226 C 52.909 111.897 52.789 111.526 52.65 111.126 C 52.51 110.726 52.348 110.297 52.183 109.852 C 52.018 109.406 51.851 108.945 51.698 108.482 C 51.544 108.019 51.405 107.554 51.299 107.101 C 51.192 106.647 51.118 106.204 51.094 105.786 C 51.07 105.369 51.097 104.976 51.191 104.622 C 51.286 104.267 51.448 103.951 51.697 103.687 C 51.946 103.423 52.281 103.21 52.72 103.064 C 53.153 102.918 53.727 102.927 54.416 102.962 C 55.106 102.996 55.91 103.056 56.804 103.014 C 57.699 102.972 58.146 104.713 59.195 104.337 C 60.243 103.961 62.429 105.78 63.581 104.814 C 64.732 103.847 68.94 100.366 69.29 99.563 C 69.64 98.761 69.351 94.169 69.016 93.139 C 68.68 92.109 64.278 93.023 63.375 91.374 C 62.472 89.725 61.313 87.668 59.959 85.009 C 59.79 84.678 59.704 84.372 59.686 84.088 C 59.667 83.804 59.715 83.541 59.818 83.297 C 59.92 83.052 60.077 82.825 60.272 82.612 C 60.467 82.399 60.702 82.201 60.961 82.013 C 61.221 81.824 61.505 81.647 61.802 81.476 C 62.098 81.305 62.406 81.141 62.71 80.98 C 63.014 80.819 63.315 80.661 63.599 80.503 C 63.882 80.345 64.149 80.186 64.384 80.024 C 64.638 79.848 64.905 79.674 65.185 79.505 C 65.464 79.335 65.756 79.17 66.057 79.01 C 66.357 78.849 66.666 78.695 66.983 78.547 C 67.298 78.4 67.621 78.259 67.948 78.128 C 68.274 77.996 68.605 77.873 68.937 77.76 C 69.268 77.647 69.602 77.544 69.934 77.453 C 70.265 77.361 70.597 77.282 70.924 77.216 C 71.25 77.15 71.574 77.097 71.891 77.06 Z" style="fill: rgb(166, 209, 48); stroke: url(&quot;#gradient-1&quot;); stroke-miterlimit: 2.81; stroke-width: 2px; stroke-linejoin: round;"/>
  <path style="stroke: rgb(0, 0, 0); fill: rgb(142, 78, 78);" d="M 80.034 78.237 L 84.346 71.501 L 82.19 79.045 L 80.034 78.237 Z"/>
  <path style="fill: rgb(216, 216, 216); stroke: rgb(0, 0, 0);" d="M 86.771 70.692 C 90.005 68.536 94.047 74.734 90.813 76.89 C 91.532 79.405 85.065 76.441 84.346 73.926 L 86.771 70.692 Z"/>
  <path style="fill: rgb(216, 216, 216); stroke: rgb(0, 0, 0);" d="M 86.771 70.692 C 90.005 68.536 94.047 74.734 90.813 76.89 C 91.532 79.405 85.065 76.441 84.346 73.926 L 86.771 70.692 Z"/>
  <path style="stroke: rgb(0, 0, 0); fill: rgb(128, 61, 61);" d="M 86.771 70.692 C 90.005 68.536 94.047 74.734 90.813 76.89 C 91.532 79.405 85.065 76.441 84.346 73.926 L 86.771 70.692 Z"/>
  <path style="stroke: rgb(0, 0, 0); fill: rgb(128, 61, 61);" d="M 78.687 66.919 C 80.854 66.542 84.874 72.775 82.729 73.117 C 83.448 75.632 76.981 72.668 76.262 70.153 L 78.687 66.919 Z"/>
</svg>